<svg width="16" height="13" fill="none" xmlns="http://www.w3.org/2000/svg"><path opacity=".4" d="M16 1.538a6.554 6.554 0 0 1-1.885.517A3.297 3.297 0 0 0 15.558.24a6.616 6.616 0 0 1-2.086.797A3.283 3.283 0 0 0 7.88 4.03 9.318 9.318 0 0 1 1.115.6 3.259 3.259 0 0 0 .67 2.25c0 1.14.58 2.144 1.46 2.732A3.282 3.282 0 0 1 .644 4.57v.041a3.286 3.286 0 0 0 2.632 3.22 3.324 3.324 0 0 1-.864.115 3.15 3.15 0 0 1-.618-.061 3.284 3.284 0 0 0 3.065 2.28 6.585 6.585 0 0 1-4.076 1.403c-.265 0-.526-.016-.783-.045A9.276 9.276 0 0 0 5.031 13c6.038 0 9.338-5.002 9.338-9.34l-.01-.426A6.554 6.554 0 0 0 16 1.538z" fill="#fff"/></svg>