<svg width="28" height="26" fill="none" xmlns="http://www.w3.org/2000/svg"><path d="M9.223 16.19c0-2.602 3.407-3.018 3.407-4.451 0-.63-.492-1.006-1.108-1.006-.852 0-1.314.853-1.314.853l-.985-.65s.667-1.443 2.412-1.443c1.283 0 2.37.772 2.37 2.134 0 2.317-3.263 2.713-3.294 4.075h3.407v1.128H9.285c-.031-.234-.062-.437-.062-.64zm5.637-2.023l3.141-4.552h1.57v4.268h.945v1.088h-.944v1.859h-1.304v-1.86H14.86v-.803zm3.408-.284v-2.235c0-.356.052-.752.052-.752h-.021s-.164.385-.36.66l-1.683 2.307v.02h2.012zm6.428.617l-.254.9c-1.441 5.112-6.701 8.337-11.905 7.059-4.997-1.228-8.103-6.023-7.356-10.907l1.506.416a.469.469 0 0 0 .582-.565L5.631 5.09a.472.472 0 0 0-.785-.217L.142 9.433a.464.464 0 0 0 .202.782l1.64.453c-1.224 6.608 2.894 13.188 9.612 14.92 6.977 1.8 14.093-2.476 16.031-9.35l.243-.86a.466.466 0 0 0-.327-.575l-2.267-.627a.471.471 0 0 0-.58.324zm2.679-3.934l-2.378.306a.467.467 0 0 0-.406.522l.094.714a.47.47 0 0 0 .527.402l2.378-.306a.467.467 0 0 0 .406-.522l-.094-.714a.47.47 0 0 0-.527-.402zm-1.83-4.448l-2.09 1.165a.464.464 0 0 0-.178.635l.357.627a.473.473 0 0 0 .64.178l2.09-1.166a.464.464 0 0 0 .179-.635l-.357-.627a.473.473 0 0 0-.642-.177zm-3.38-3.446l-1.497 1.856a.463.463 0 0 0 .075.655l.568.449c.203.16.5.128.662-.074l1.495-1.855a.463.463 0 0 0-.074-.655l-.568-.45a.474.474 0 0 0-.662.075zm-4.44-1.94l-.684 2.274a.465.465 0 0 0 .316.58l.697.206a.472.472 0 0 0 .586-.314l.685-2.274a.465.465 0 0 0-.317-.58l-.697-.206a.472.472 0 0 0-.586.314zM12.877.578l.226 2.363a.47.47 0 0 0 .513.42l.724-.068a.467.467 0 0 0 .425-.508L14.538.422a.47.47 0 0 0-.513-.42l-.724.068a.467.467 0 0 0-.425.508zM8.323 2.234L9.427 4.34c.12.229.404.318.635.2l.645-.332c.23-.119.321-.4.201-.628L9.805 1.473a.473.473 0 0 0-.635-.199l-.645.331a.465.465 0 0 0-.202.629z" fill="#fff"/></svg>