<svg width="19" height="16" fill="none" xmlns="http://www.w3.org/2000/svg"><path d="M11.884 4.657a.355.355 0 0 0-.5-.003L8.267 7.75 6.913 6.386a.355.355 0 0 0-.5-.004l-.836.829a.355.355 0 0 0-.003.5l2.432 2.45c.136.139.36.139.5.003l4.207-4.171c.14-.136.14-.36.004-.5l-.833-.836zM9.145 0C4.095 0 .002 3.325.002 7.429c0 1.7.711 3.257 1.89 4.51-.532 1.407-1.64 2.6-1.657 2.615A.857.857 0 0 0 .86 16c2.196 0 3.928-.918 4.967-1.654a11.03 11.03 0 0 0 3.318.511c5.05 0 9.143-3.325 9.143-7.428C18.288 3.325 14.195 0 9.145 0zm0 13.143a9.281 9.281 0 0 1-2.8-.432l-.81-.257-.697.492a7.68 7.68 0 0 1-2.053 1.036c.26-.432.514-.918.71-1.436l.379-1.003-.736-.779c-.646-.689-1.421-1.828-1.421-3.335 0-3.15 3.332-5.715 7.428-5.715 4.097 0 7.429 2.565 7.429 5.715s-3.332 5.714-7.429 5.714z" fill="#F18F36"/></svg>