<svg width="18" height="14" fill="none" xmlns="http://www.w3.org/2000/svg"><path d="M16.497 0H1.503C.672 0 0 .672 0 1.5v11c0 .828.672 1.5 1.503 1.5h14.994c.831 0 1.503-.672 1.503-1.5v-11c0-.828-.672-1.5-1.503-1.5zM1.69 1.5h14.618c.104 0 .188.084.188.188V3H1.503V1.687c0-.103.085-.187.188-.187zm14.618 11H1.691a.188.188 0 0 1-.188-.188V7h14.994v5.313a.188.188 0 0 1-.188.187zM6 9.375v1.25a.376.376 0 0 1-.375.375h-2.25A.376.376 0 0 1 3 10.625v-1.25C3 9.169 3.169 9 3.375 9h2.25c.206 0 .375.169.375.375zm6 0v1.25a.376.376 0 0 1-.375.375h-4.25A.376.376 0 0 1 7 10.625v-1.25C7 9.169 7.169 9 7.375 9h4.25c.206 0 .375.169.375.375z" fill="#989898" opacity=".7"/></svg>