<svg width="14" height="12" fill="none" xmlns="http://www.w3.org/2000/svg"><path d="M13.416 1.5h-9.91L3.296.454A.578.578 0 0 0 2.722 0H.292A.287.287 0 0 0 0 .281v.563c0 .155.13.281.292.281h1.95l1.691 8.337c-.268.27-.433.635-.433 1.038 0 .828.696 1.5 1.556 1.5.859 0 1.555-.672 1.555-1.5 0-.263-.072-.522-.209-.75h3.529a1.452 1.452 0 0 0-.209.75c0 .828.697 1.5 1.556 1.5.859 0 1.555-.672 1.555-1.5a1.47 1.47 0 0 0-.478-1.081l.025-.112c.08-.35-.198-.682-.57-.682H4.952L4.724 7.5h7.593a.579.579 0 0 0 .57-.443l1.1-4.875c.079-.35-.198-.682-.57-.682zm-2.138 8.438c.321 0 .583.252.583.562 0 .31-.262.563-.583.563a.574.574 0 0 1-.584-.563c0-.31.262-.563.584-.563zm-6.222 0c.321 0 .583.252.583.562 0 .31-.262.563-.583.563a.574.574 0 0 1-.584-.563c0-.31.262-.563.584-.563zm6.791-3.563H4.496l-.761-3.75h8.958l-.846 3.75zM6.611 4.687v-.375c0-.155.13-.28.292-.28h.778v-.75c0-.156.13-.282.291-.282h.39c.16 0 .29.126.29.281v.75h.779c.16 0 .291.126.291.282v.375c0 .155-.13.28-.291.28h-.778v.75c0 .156-.13.282-.292.282h-.389a.287.287 0 0 1-.291-.281v-.75h-.778a.287.287 0 0 1-.292-.282z" fill="#49C562"/></svg>