<svg width="8" height="13" fill="none" xmlns="http://www.w3.org/2000/svg"><mask id="a" maskUnits="userSpaceOnUse" x="-.253" y="-.033" width="8" height="13" fill="#000"><path fill="#fff" d="M-.253-.033h8v13h-8z"/><path fill-rule="evenodd" clip-rule="evenodd" d="M.834 6.153a.766.766 0 0 1 .151-.215L5.733 1.19A.762.762 0 0 1 6.81 2.267L2.578 6.5l4.26 4.26a.762.762 0 0 1-1.077 1.077L.97 7.047a.761.761 0 0 1-.136-.894z"/></mask><path fill-rule="evenodd" clip-rule="evenodd" d="M.834 6.153a.766.766 0 0 1 .151-.215L5.733 1.19A.762.762 0 0 1 6.81 2.267L2.578 6.5l4.26 4.26a.762.762 0 0 1-1.077 1.077L.97 7.047a.761.761 0 0 1-.136-.894z" fill="#353535"/><path d="M.985 5.938l-.177-.176.177.176zm-.15.215l.22.117.005-.01-.226-.107zM5.732 1.19l-.177-.177.177.177zm1.077 0l.177-.177-.177.177zm0 1.077l.177.177-.177-.177zM2.578 6.5L2.4 6.323l-.177.177.177.177.177-.177zm4.26 4.26l.177-.177-.177.177zM5.76 11.837l.176-.177-.176.177zM.97 7.047l.177-.177-.177.176zM.808 5.761a1.015 1.015 0 0 0-.2.284l.452.213a.516.516 0 0 1 .102-.144l-.354-.353zm4.748-4.749L.808 5.762l.354.353L5.91 1.367l-.354-.354zm1.431 0a1.012 1.012 0 0 0-1.43 0l.353.354c.2-.2.524-.2.724 0l.353-.354zm0 1.431a1.012 1.012 0 0 0 0-1.43l-.353.353c.2.2.2.524 0 .724l.353.353zM2.755 6.677l4.232-4.233-.353-.353L2.4 6.323l.354.354zm-.354 0l4.26 4.26.353-.354-4.26-4.26-.353.354zm4.26 4.26c.2.2.2.524 0 .723l.354.354a1.012 1.012 0 0 0 0-1.43l-.354.353zm0 .723c-.2.2-.524.2-.724 0l-.353.354a1.012 1.012 0 0 0 1.43 0l-.353-.354zm-.724 0l-4.79-4.79-.354.353 4.79 4.79.354-.353zm-4.79-4.79a.511.511 0 0 1-.092-.6l-.442-.234c-.202.382-.141.866.18 1.187l.354-.353z" fill="#353535" mask="url(#a)"/></svg>