<svg width="7" height="8" fill="none" xmlns="http://www.w3.org/2000/svg"><path d="M3.992 3.508h2.68A.33.33 0 0 1 7 3.836v.328a.33.33 0 0 1-.328.328h-2.68v2.68a.33.33 0 0 1-.328.328h-.328a.33.33 0 0 1-.328-.328v-2.68H.328A.33.33 0 0 1 0 4.164v-.328a.33.33 0 0 1 .328-.328h2.68V.828A.33.33 0 0 1 3.336.5h.328a.33.33 0 0 1 .328.328v2.68z" fill="#353535"/><path d="M3.992 3.508h2.68A.33.33 0 0 1 7 3.836v.328a.33.33 0 0 1-.328.328h-2.68v2.68a.33.33 0 0 1-.328.328h-.328a.33.33 0 0 1-.328-.328v-2.68H.328A.33.33 0 0 1 0 4.164v-.328a.33.33 0 0 1 .328-.328h2.68V.828A.33.33 0 0 1 3.336.5h.328a.33.33 0 0 1 .328.328v2.68z" stroke="#353535"/></svg>