<svg width="18" height="18" fill="none" xmlns="http://www.w3.org/2000/svg"><path d="M12.152 11.992C13.4 10.605 13.88 9.232 13.88 7.5c0-3.658-2.909-6.625-6.503-6.625C3.783.875.875 3.842.875 7.5c0 3.657 2.908 6.624 6.502 6.624 1.701 0 3.06-.476 4.412-1.759.147-.14.228-.222.363-.373zm-4.775.606c-2.913 0-5.048-2.126-5.048-5.098 0-2.974 2.137-5.157 5.048-5.157 2.91 0 4.992 2.18 4.992 5.157 0 2.974-2.08 5.098-4.992 5.098zm9.604 3.364a.505.505 0 0 1 0 .706l-.304.31a.488.488 0 0 1-.698 0l-3.07-2.938-.006-.004a.513.513 0 0 1-.14-.34v-.001a2.014 2.014 0 0 1-.014-.117.743.743 0 0 1 .018-.248.674.674 0 0 1 .16-.284.65.65 0 0 1 .279-.165.704.704 0 0 1 .248-.02l.09.01.026.004.008.002h.003L13.56 13a.36.36 0 0 1 .26.11l3.162 2.852zm0 0l-.003-.003-3.07-2.939 3.073 2.942z" fill="#353535" stroke="#353535" stroke-width=".25"/></svg>