<svg width="18" height="18" fill="none" xmlns="http://www.w3.org/2000/svg"><path d="M12.152 11.992C13.4 10.605 13.88 9.232 13.88 7.5c0-3.658-2.909-6.625-6.503-6.625C3.783.875.875 3.842.875 7.5c0 3.657 2.908 6.624 6.502 6.624 1.701 0 3.06-.476 4.412-1.759.147-.14.228-.222.363-.373zm-4.775.606c-2.913 0-5.048-2.126-5.048-5.098 0-2.974 2.137-5.157 5.048-5.157 2.91 0 4.992 2.18 4.992 5.157 0 2.974-2.08 5.098-4.992 5.098zm9.605 3.364l-.003-.003-3.071-2.939a.485.485 0 0 0-.337-.145c-.007 0-.016-.002-.027-.004a1.332 1.332 0 0 0-.09-.01.704.704 0 0 0-.248.02.65.65 0 0 0-.28.165.672.672 0 0 0-.176.532 1.464 1.464 0 0 0 .013.117c.003.13.056.25.141.34l.005.005 3.07 2.939a.488.488 0 0 0 .699-.002l.303-.309a.505.505 0 0 0 0-.706z" fill="#fff" stroke="#fff" stroke-width=".25"/></svg>