<svg width="16" height="18" fill="none" xmlns="http://www.w3.org/2000/svg"><path d="M15.015 2.79L8.615.123a1.6 1.6 0 0 0-1.23 0L.985 2.79A1.6 1.6 0 0 0 0 4.267c0 6.616 3.817 11.19 7.385 12.677a1.6 1.6 0 0 0 1.23 0C11.47 15.754 16 11.643 16 4.267a1.6 1.6 0 0 0-.985-1.477zM8 15.467c-3.252-1.355-6.4-5.558-6.4-11.2L8 1.6l6.4 2.667c0 5.793-3.28 9.9-6.4 11.2zm4.927-9.124l-5.753 5.706a.4.4 0 0 1-.565-.002l-3.026-3.05a.4.4 0 0 1 .002-.566l.757-.751a.4.4 0 0 1 .566.002L6.9 9.692l4.712-4.675a.4.4 0 0 1 .565.003l.752.757a.4.4 0 0 1-.003.566z" fill="#989898" opacity=".7"/></svg>