<svg width="20" height="16" fill="none" xmlns="http://www.w3.org/2000/svg"><path d="M19.5 11.5H19V7.872c0-.594-.24-1.172-.66-1.59l-2.62-2.624c-.419-.418-1-.659-1.59-.659H13V1.75A1.75 1.75 0 0 0 11.25 0h-7.5A1.75 1.75 0 0 0 2 1.75V3H.25a.25.25 0 0 0-.25.25v.5c0 .138.113.25.25.25h7.5A.25.25 0 0 0 8 3.75v-.5A.25.25 0 0 0 7.75 3H3.5V1.75a.25.25 0 0 1 .25-.25h7.5a.25.25 0 0 1 .25.25v9.75H7.584A2.983 2.983 0 0 0 5 10c-.55 0-1.056.16-1.5.416V9H2v4a3 3 0 0 0 6 0h4a3 3 0 0 0 6 0h1.5c.275 0 .5-.225.5-.5V12c0-.275-.225-.5-.5-.5zM5 14.5a1.5 1.5 0 1 1 0-3 1.5 1.5 0 0 1 0 3zm8-10h1.128c.197 0 .39.081.531.219L16.941 7H13V4.5zm2 10a1.5 1.5 0 1 1 0-3 1.5 1.5 0 0 1 0 3zm2.5-3.153A3 3 0 0 0 15 10c-.772 0-1.469.3-2 .778V8.5h4.5v2.847zM8 7.75v-.5A.25.25 0 0 0 7.75 7H.25a.25.25 0 0 0-.25.25v.5c0 .138.113.25.25.25h7.5A.25.25 0 0 0 8 7.75zM8.75 6A.25.25 0 0 0 9 5.75v-.5A.25.25 0 0 0 8.75 5h-7.5a.25.25 0 0 0-.25.25v.5c0 .138.113.25.25.25h7.5z" fill="#989898" opacity=".7"/></svg>