<svg width="20" height="18" fill="none" xmlns="http://www.w3.org/2000/svg"><path d="M19.166 2.25H5.01L4.707.682A.836.836 0 0 0 3.889 0H.417A.42.42 0 0 0 0 .422v.844a.42.42 0 0 0 .417.421h2.786l2.416 12.506A2.255 2.255 0 0 0 5 15.75C5 16.993 5.995 18 7.222 18c1.228 0 2.222-1.007 2.222-2.25a2.26 2.26 0 0 0-.298-1.125h5.04a2.26 2.26 0 0 0-.297 1.125c0 1.243.995 2.25 2.222 2.25 1.227 0 2.222-1.007 2.222-2.25 0-.638-.262-1.213-.683-1.622l.036-.167a.841.841 0 0 0-.814-1.024H7.075l-.326-1.687h10.847a.836.836 0 0 0 .815-.665l1.57-7.312a.841.841 0 0 0-.815-1.023zM7.222 16.594a.84.84 0 0 1-.833-.844.84.84 0 0 1 .833-.844.84.84 0 0 1 .834.844.84.84 0 0 1-.834.844zm8.89 0a.84.84 0 0 1-.834-.844.84.84 0 0 1 .833-.844.84.84 0 0 1 .833.844.84.84 0 0 1-.833.844zm.813-7.032H6.423L5.336 3.939h12.797l-1.208 5.624z" fill="#353535"/></svg>