<svg width="18" height="16" fill="none" xmlns="http://www.w3.org/2000/svg"><path d="M17.591 3.706L15.695.47a.923.923 0 0 0-.792-.47H3.097a.923.923 0 0 0-.792.469L.41 3.706C-.455 5.181.117 7.162 1.52 7.794V14.9c0 .606.418 1.1.935 1.1h13.092c.517 0 .935-.494.935-1.1V7.794c1.403-.631 1.975-2.613 1.11-4.088zM15.078 14.5H2.922v-3h12.156v3zm0-4.506H2.922V7.972a2.843 2.843 0 0 0 1.762-1.006C5.21 7.594 5.978 8 6.84 8c.865 0 1.631-.406 2.157-1.034C9.523 7.594 10.292 8 11.154 8c.865 0 1.63-.406 2.156-1.034a2.85 2.85 0 0 0 1.762 1.006v2.022h.006zm1.394-4.156c-.093.212-.318.58-.789.65a1.434 1.434 0 0 1-1.324-.522l-1.043-1.247-1.043 1.244c-.29.346-.687.537-1.114.537-.426 0-.824-.19-1.113-.537L9 4.719 7.957 5.963c-.29.346-.687.537-1.114.537-.43 0-.824-.19-1.113-.537L4.684 4.719 3.64 5.963a1.439 1.439 0 0 1-1.324.521c-.468-.068-.696-.434-.79-.65-.145-.337-.207-.862.068-1.33L3.355 1.5h11.288l1.759 3.003c.278.472.22.997.07 1.335z" fill="#989898" opacity=".7"/></svg>