<svg width="13" height="13" fill="none" xmlns="http://www.w3.org/2000/svg"><mask id="a" maskUnits="userSpaceOnUse" x=".093" y="5" width="13" height="8" fill="#000"><path fill="#fff" d="M.093 5h13v8h-13z"/><path fill-rule="evenodd" clip-rule="evenodd" d="M6.906 6.087a.762.762 0 0 1 .215.152l4.749 4.748a.762.762 0 0 1-1.077 1.077L6.56 7.83 2.3 12.09a.762.762 0 0 1-1.077-1.077l4.79-4.79a.76.76 0 0 1 .893-.137z"/></mask><path fill-rule="evenodd" clip-rule="evenodd" d="M6.906 6.087a.762.762 0 0 1 .215.152l4.749 4.748a.762.762 0 0 1-1.077 1.077L6.56 7.83 2.3 12.09a.762.762 0 0 1-1.077-1.077l4.79-4.79a.76.76 0 0 1 .893-.137z" fill="#353535"/><path d="M7.121 6.239l.177-.177-.177.177zm-.215-.152l-.117.222.01.005.107-.227zm4.964 4.9l-.177.177.177-.177zm-1.077 1.077l-.177.177.177-.177zM6.56 7.83l.177-.176-.177-.177-.177.177.177.176zM2.3 12.09l.177.177-.177-.177zm-1.077-1.077l.176.177-.176-.177zm4.79-4.79l.177.176-.177-.176zm1.285-.162a1.012 1.012 0 0 0-.286-.201l-.212.453a.512.512 0 0 1 .145.102l.353-.354zm4.748 4.748L7.298 6.062l-.353.353 4.748 4.749.354-.354zm0 1.43a1.012 1.012 0 0 0 0-1.43l-.353.354c.2.2.2.523 0 .723l.353.354zm-1.43 0a1.012 1.012 0 0 0 1.43 0l-.353-.353c-.2.2-.524.2-.724 0l-.353.354zm-4.233-4.23l4.233 4.233.353-.354-4.232-4.232-.354.353zm0-.353l-4.26 4.26.354.353 4.26-4.26-.354-.353zm-4.26 4.26c-.2.2-.524.2-.724 0l-.353.353a1.012 1.012 0 0 0 1.43 0l-.353-.354zm-.724 0c-.2-.2-.2-.524 0-.724l-.353-.354a1.012 1.012 0 0 0 0 1.431l.353-.354zm0-.724L6.19 6.4l-.353-.354-4.791 4.79.353.354zM6.19 6.4a.51.51 0 0 1 .6-.092l.232-.443a1.01 1.01 0 0 0-1.186.181l.354.353z" fill="#353535" mask="url(#a)"/><mask id="b" maskUnits="userSpaceOnUse" x="0" y=".314" width="13" height="8" fill="#000"><path fill="#fff" d="M0 .314h13v8H0z"/><path fill-rule="evenodd" clip-rule="evenodd" d="M11.871 1.223a.763.763 0 0 0-1.078 0l-4.26 4.26L2.3 1.25a.762.762 0 1 0-1.077 1.078L5.97 7.076a.75.75 0 0 0 .224.155c.286.146.646.1.885-.14l4.791-4.79a.763.763 0 0 0 0-1.078z"/></mask><path fill-rule="evenodd" clip-rule="evenodd" d="M11.871 1.223a.763.763 0 0 0-1.078 0l-4.26 4.26L2.3 1.25a.762.762 0 1 0-1.077 1.078L5.97 7.076a.75.75 0 0 0 .224.155c.286.146.646.1.885-.14l4.791-4.79a.763.763 0 0 0 0-1.078z" fill="#353535"/><path d="M10.793 1.223l-.177-.177.177.177zm1.078 0l.177-.177-.177.177zm-5.338 4.26l-.177.177.177.177.177-.177-.177-.177zM2.3 1.25l-.177.177.177-.177zm-1.077 0l-.177-.176.177.176zm0 1.078l-.177.176.177-.176zM5.97 7.076l-.177.176.177-.176zm.224.155l.114-.223-.011-.005-.103.228zm.885-.14l-.177-.177.177.177zm4.791-4.79l.177.176-.177-.177zm-.9-.901c.2-.2.524-.2.724 0l.354-.354a1.013 1.013 0 0 0-1.432 0l.354.354zM6.71 5.66l4.26-4.26-.354-.354-4.26 4.26.354.354zm0-.354L2.477 1.074l-.354.353L6.356 5.66l.354-.354zM2.477 1.074a1.012 1.012 0 0 0-1.431 0l.353.353c.2-.2.525-.2.724 0l.354-.353zm-1.431 0a1.013 1.013 0 0 0 0 1.43l.354-.353c-.2-.2-.2-.524 0-.724l-.354-.353zm0 1.43l4.748 4.748.353-.353L1.4 2.15l-.353.353zm4.748 4.748a1 1 0 0 0 .299.207l.205-.456a.5.5 0 0 1-.15-.104l-.354.353zm1.11-.338a.512.512 0 0 1-.595.094l-.227.446c.38.193.857.132 1.175-.186l-.354-.354zm4.79-4.79l-4.79 4.79.353.354 4.79-4.791-.353-.354zm0-.724c.2.2.2.524 0 .724l.354.353a1.013 1.013 0 0 0 0-1.43l-.354.353z" fill="#353535" mask="url(#b)"/></svg>