<svg xmlns="http://www.w3.org/2000/svg" width="24" height="24"><path data-name="Forma 1 копия 3" d="M12 0a12 12 0 1 0 12 12A12 12 0 0 0 12 0zm4.91 13.085a19.942 19.942 0 0 1 1.47 1.391 4.282 4.282 0 0 1 .53.713.506.506 0 0 1-.34.8h-2.18a1.732 1.732 0 0 1-1.39-.533c-.31-.289-.59-.6-.88-.9a1.989 1.989 0 0 0-.39-.329.471.471 0 0 0-.73.166 2.141 2.141 0 0 0-.23.96c-.02.485-.18.612-.69.634a5.878 5.878 0 0 1-3.13-.633 6.776 6.776 0 0 1-2.11-1.853 25.3 25.3 0 0 1-2.77-4.648c-.17-.366-.04-.562.39-.57a63.61 63.61 0 0 1 2.14 0 .618.618 0 0 1 .59.418 12.564 12.564 0 0 0 1.45 2.529 2.244 2.244 0 0 0 .55.567.335.335 0 0 0 .56-.156 1.641 1.641 0 0 0 .13-.531 7.708 7.708 0 0 0-.03-1.859.813.813 0 0 0-.71-.71c-.21-.037-.17-.11-.07-.222a.792.792 0 0 1 .67-.314h2.47a.569.569 0 0 1 .53.605v2.582a.714.714 0 0 0 .35.66.5.5 0 0 0 .49-.227 8.127 8.127 0 0 0 1.39-2.012c.17-.319.31-.648.45-.978a.532.532 0 0 1 .56-.361h2.38a1.233 1.233 0 0 1 .21.012c.4.064.51.227.38.6a5.4 5.4 0 0 1-.94 1.542c-.4.516-.82 1.015-1.22 1.534a.679.679 0 0 0 .12 1.124z" fill="#297aff" fill-rule="evenodd"/></svg>