
<svg xmlns="http://www.w3.org/2000/svg" version="1.1">
	<defs>
		<g id="img-aiplane">
			<path xmlns="http://www.w3.org/2000/svg" fill="#3F3F3F" d="M18.2497 13.6667V11.8333L10.9163 7.25V2.20833C10.9163 1.44749 10.3022 0.833328 9.54134 0.833328C8.78051 0.833328 8.16634 1.44749 8.16634 2.20833V7.25L0.833008 11.8333V13.6667L8.16634 11.375V16.4167L6.33301 17.7917V19.1667L9.54134 18.25L12.7497 19.1667V17.7917L10.9163 16.4167V11.375L18.2497 13.6667Z"/>
		</g>
		<g id="img-bus">
			<path xmlns="http://www.w3.org/2000/svg" fill="#3F3F3F" d="M0.666992 13.6667C0.666992 14.4733 1.02449 15.1975 1.58366 15.7017V17.3333C1.58366 17.8375 1.99616 18.25 2.50033 18.25H3.41699C3.92116 18.25 4.33366 17.8375 4.33366 17.3333V16.4167H11.667V17.3333C11.667 17.8375 12.0795 18.25 12.5837 18.25H13.5003C14.0045 18.25 14.417 17.8375 14.417 17.3333V15.7017C14.9762 15.1975 15.3337 14.4733 15.3337 13.6667V4.49999C15.3337 1.29166 12.052 0.833328 8.00032 0.833328C3.94866 0.833328 0.666992 1.29166 0.666992 4.49999V13.6667ZM3.87533 14.5833C3.11449 14.5833 2.50033 13.9692 2.50033 13.2083C2.50033 12.4475 3.11449 11.8333 3.87533 11.8333C4.63616 11.8333 5.25033 12.4475 5.25033 13.2083C5.25033 13.9692 4.63616 14.5833 3.87533 14.5833ZM12.1253 14.5833C11.3645 14.5833 10.7503 13.9692 10.7503 13.2083C10.7503 12.4475 11.3645 11.8333 12.1253 11.8333C12.8862 11.8333 13.5003 12.4475 13.5003 13.2083C13.5003 13.9692 12.8862 14.5833 12.1253 14.5833ZM13.5003 9.08333H2.50033V4.49999H13.5003V9.08333Z"/>
		</g>
		<g id="img-rent-car">
			<path xmlns="http://www.w3.org/2000/svg" fill="#3F3F3F" d="M15.3433 1.50915C15.16 0.968313 14.6467 0.583313 14.0417 0.583313H3.95833C3.35333 0.583313 2.84917 0.968313 2.65667 1.50915L0.75 6.99998V14.3333C0.75 14.8375 1.1625 15.25 1.66667 15.25H2.58333C3.0875 15.25 3.5 14.8375 3.5 14.3333V13.4166H14.5V14.3333C14.5 14.8375 14.9125 15.25 15.4167 15.25H16.3333C16.8375 15.25 17.25 14.8375 17.25 14.3333V6.99998L15.3433 1.50915ZM3.95833 10.6666C3.1975 10.6666 2.58333 10.0525 2.58333 9.29165C2.58333 8.53081 3.1975 7.91665 3.95833 7.91665C4.71917 7.91665 5.33333 8.53081 5.33333 9.29165C5.33333 10.0525 4.71917 10.6666 3.95833 10.6666ZM14.0417 10.6666C13.2808 10.6666 12.6667 10.0525 12.6667 9.29165C12.6667 8.53081 13.2808 7.91665 14.0417 7.91665C14.8025 7.91665 15.4167 8.53081 15.4167 9.29165C15.4167 10.0525 14.8025 10.6666 14.0417 10.6666ZM2.58333 6.08331L3.95833 1.95831H14.0417L15.4167 6.08331H2.58333Z"/>
		</g>
		<g id="img-taxi">
			<path xmlns="http://www.w3.org/2000/svg" fill="#3F3F3F" d="M15.3433 3.50917C15.16 2.96833 14.6467 2.58333 14.0417 2.58333H11.75V0.75H6.25V2.58333H3.95833C3.35333 2.58333 2.84917 2.96833 2.65667 3.50917L0.75 9V16.3333C0.75 16.8375 1.1625 17.25 1.66667 17.25H2.58333C3.0875 17.25 3.5 16.8375 3.5 16.3333V15.4167H14.5V16.3333C14.5 16.8375 14.9125 17.25 15.4167 17.25H16.3333C16.8375 17.25 17.25 16.8375 17.25 16.3333V9L15.3433 3.50917ZM3.95833 12.6667C3.1975 12.6667 2.58333 12.0525 2.58333 11.2917C2.58333 10.5308 3.1975 9.91667 3.95833 9.91667C4.71917 9.91667 5.33333 10.5308 5.33333 11.2917C5.33333 12.0525 4.71917 12.6667 3.95833 12.6667ZM14.0417 12.6667C13.2808 12.6667 12.6667 12.0525 12.6667 11.2917C12.6667 10.5308 13.2808 9.91667 14.0417 9.91667C14.8025 9.91667 15.4167 10.5308 15.4167 11.2917C15.4167 12.0525 14.8025 12.6667 14.0417 12.6667ZM2.58333 8.08333L3.95833 3.95833H14.0417L15.4167 8.08333H2.58333Z"/>
		</g>
		<g id="img-train">
			<path xmlns="http://www.w3.org/2000/svg" fill="#3F3F3F" d="M8.00032 0.833328C4.33366 0.833328 0.666992 1.29166 0.666992 4.49999V13.2083C0.666992 14.9775 2.10616 16.4167 3.87533 16.4167L2.50033 17.7917V18.25H4.54449L6.37782 16.4167H9.83366L11.667 18.25H13.5003V17.7917L12.1253 16.4167C13.8945 16.4167 15.3337 14.9775 15.3337 13.2083V4.49999C15.3337 1.29166 12.052 0.833328 8.00032 0.833328ZM3.87533 14.5833C3.11449 14.5833 2.50033 13.9692 2.50033 13.2083C2.50033 12.4475 3.11449 11.8333 3.87533 11.8333C4.63616 11.8333 5.25033 12.4475 5.25033 13.2083C5.25033 13.9692 4.63616 14.5833 3.87533 14.5833ZM7.08366 8.16666H2.50033V4.49999H7.08366V8.16666ZM8.91699 8.16666V4.49999H13.5003V8.16666H8.91699ZM12.1253 14.5833C11.3645 14.5833 10.7503 13.9692 10.7503 13.2083C10.7503 12.4475 11.3645 11.8333 12.1253 11.8333C12.8862 11.8333 13.5003 12.4475 13.5003 13.2083C13.5003 13.9692 12.8862 14.5833 12.1253 14.5833Z"/>
		</g>
		<g id="img-transfer">
			<path xmlns="http://www.w3.org/2000/svg" fill="#3F3F3F" d="M15.5837 0.583313H2.75033C1.74199 0.583313 0.916992 1.39915 0.916992 2.41665V10.6666H2.75033C2.75033 12.1791 3.97866 13.4166 5.50033 13.4166C7.02199 13.4166 8.25033 12.1791 8.25033 10.6666H13.292C13.292 12.1791 14.5203 13.4166 16.042 13.4166C17.5637 13.4166 18.792 12.1791 18.792 10.6666H21.0837V6.08331L15.5837 0.583313ZM2.75033 6.08331V2.41665H6.41699V6.08331H2.75033ZM5.50033 12.0416C4.73949 12.0416 4.12533 11.4275 4.12533 10.6666C4.12533 9.90581 4.73949 9.29165 5.50033 9.29165C6.26116 9.29165 6.87533 9.90581 6.87533 10.6666C6.87533 11.4275 6.26116 12.0416 5.50033 12.0416ZM11.917 6.08331H8.25033V2.41665H11.917V6.08331ZM16.042 12.0416C15.2812 12.0416 14.667 11.4275 14.667 10.6666C14.667 9.90581 15.2812 9.29165 16.042 9.29165C16.8028 9.29165 17.417 9.90581 17.417 10.6666C17.417 11.4275 16.8028 12.0416 16.042 12.0416ZM13.7503 6.08331V2.41665H14.667L18.3337 6.08331H13.7503Z"/>
		</g>
	</defs>
</svg>
