<svg width="50" height="50" viewBox="0 0 50 50" fill="none" xmlns="http://www.w3.org/2000/svg">
<path d="M43.444 8.56329C41.6438 6.01405 39.0234 3.87307 35.8659 2.37203C32.6019 0.820242 28.841 0 24.9896 0C21.2056 0 17.5016 0.793461 14.278 2.2945C11.1618 3.74552 8.55006 5.82222 6.72519 8.30011C4.91894 10.7527 4.09552 13.5573 4.34418 16.4109C4.59093 19.2434 5.8769 21.9326 8.06282 24.188C11.6523 27.8913 16.877 32.2987 22.2833 33.482V47.2926C22.2833 48.7855 23.4978 50 24.9908 50C26.4836 50 27.6982 48.7855 27.6982 47.2926V33.481C33.1277 32.29 38.371 27.8466 41.9191 24.1855C46.3315 19.6323 46.93 13.5003 43.444 8.56329ZM24.9908 48.6382C24.2488 48.6382 23.6451 48.0346 23.6451 47.2926V33.7097C23.8326 33.731 24.0202 33.748 24.2078 33.7607C24.2234 33.7617 24.2389 33.7623 24.2542 33.7623C24.6095 33.7623 24.9087 33.4868 24.9329 33.1271C24.9582 32.7519 24.6745 32.4273 24.2993 32.4021C20.804 32.167 17.2585 30.2289 14.1515 27.8442C14.4992 27.4531 14.8653 27.0834 15.2481 26.7357C17.8501 28.9204 20.3326 30.3195 22.6338 30.8966C22.635 30.8968 22.6363 30.8969 22.6374 30.8972C22.6562 30.9018 22.6753 30.9048 22.6944 30.9078C22.7027 30.9092 22.7111 30.9113 22.7193 30.9122C22.7364 30.9142 22.7536 30.9146 22.7708 30.9154C22.7805 30.9157 22.7902 30.9172 22.7999 30.9172C22.8035 30.9172 22.8069 30.9164 22.8105 30.9163C22.843 30.9158 22.8755 30.9133 22.9079 30.9081C22.9203 30.9061 22.9322 30.9023 22.9445 30.8996C22.9676 30.8945 22.9907 30.8895 23.0133 30.882C23.0271 30.8774 23.0402 30.8712 23.0536 30.8657C23.0735 30.8576 23.0934 30.8498 23.1127 30.8397C23.1279 30.8318 23.1422 30.8222 23.1568 30.8131C23.1698 30.8052 23.1833 30.7986 23.1959 30.7896C23.2 30.7866 23.2038 30.7832 23.2078 30.7802C23.2136 30.7759 23.219 30.7713 23.2245 30.7668C23.2493 30.7471 23.2728 30.7262 23.2941 30.7037C23.2954 30.7023 23.2968 30.7011 23.2981 30.6998C23.321 30.6751 23.3413 30.6486 23.36 30.6214C23.3636 30.6161 23.3673 30.611 23.3707 30.6056C23.3887 30.5778 23.4045 30.549 23.418 30.5193C23.4205 30.5138 23.4226 30.5084 23.425 30.5029C23.4386 30.471 23.4501 30.4383 23.4587 30.4048C23.459 30.4037 23.4595 30.4028 23.4598 30.4017C23.4617 30.394 23.4627 30.3862 23.4644 30.3785C23.4671 30.3658 23.4699 30.3533 23.4719 30.3406C23.4737 30.3293 23.4747 30.3181 23.4758 30.3069C23.4769 30.2962 23.4782 30.2856 23.4788 30.2749C23.4796 30.2627 23.4796 30.2505 23.4796 30.2385C23.4796 30.2285 23.4797 30.2186 23.4794 30.2086C23.4789 30.1965 23.4777 30.1846 23.4767 30.1727C23.4757 30.1625 23.4748 30.1523 23.4735 30.1421C23.4719 30.1309 23.4698 30.1199 23.4677 30.1088C23.4656 30.0979 23.4636 30.0871 23.4609 30.0763C23.4585 30.0662 23.4555 30.0563 23.4526 30.0462C23.4493 30.0348 23.446 30.0235 23.4421 30.0121C23.4387 30.0026 23.4348 29.9933 23.4311 29.9838C23.4266 29.9727 23.4224 29.9617 23.4173 29.9508C23.4126 29.9407 23.4073 29.9309 23.4021 29.9211C23.3971 29.9115 23.3922 29.9018 23.3867 29.8923C23.3798 29.8806 23.3722 29.8693 23.3646 29.858C23.3605 29.8519 23.3571 29.8456 23.3528 29.8397L19.2751 24.1473C19.5627 24.0242 19.8543 23.9099 20.1497 23.8056L23.3433 28.3247C23.4759 28.5125 23.6863 28.6128 23.8999 28.6128C23.9057 28.6128 23.9116 28.6116 23.9174 28.6114C23.9261 28.6118 23.9347 28.6128 23.9436 28.6128C24.3196 28.6128 24.6244 28.308 24.6244 27.9319V22.984C24.7477 22.9809 24.8712 22.9789 24.995 22.9789C25.1161 22.9789 25.2367 22.9809 25.3572 22.9839V27.9317C25.3572 27.9401 25.3581 27.9482 25.3584 27.9565C25.3589 27.9678 25.3592 27.9793 25.3602 27.9906C25.3613 28.0031 25.363 28.0153 25.3647 28.0277C25.3661 28.0369 25.3673 28.0463 25.369 28.0555C25.3714 28.0688 25.3745 28.082 25.3778 28.095C25.3798 28.1032 25.3818 28.1114 25.384 28.1195C25.3878 28.1325 25.392 28.1453 25.3966 28.158C25.3995 28.1662 25.4023 28.1744 25.4056 28.1826C25.4103 28.1945 25.4155 28.206 25.4207 28.2175C25.4248 28.2263 25.4289 28.2351 25.4333 28.2437C25.4386 28.254 25.4443 28.264 25.4501 28.274C25.4557 28.2834 25.4612 28.2929 25.4672 28.3021C25.4729 28.3109 25.4789 28.3194 25.485 28.3279C25.4919 28.3374 25.4988 28.347 25.5062 28.3563C25.5126 28.3643 25.5193 28.3719 25.526 28.3796C25.5338 28.3885 25.5416 28.3973 25.5498 28.4057C25.5576 28.4137 25.5658 28.4213 25.574 28.4289C25.5818 28.4362 25.5895 28.4436 25.5978 28.4506C25.6079 28.4592 25.6185 28.4673 25.6292 28.4752C25.6347 28.4794 25.6396 28.484 25.6453 28.488C25.6466 28.4889 25.648 28.4894 25.6493 28.4903C25.6751 28.5084 25.7023 28.5244 25.7306 28.5387C25.7364 28.5416 25.7422 28.5443 25.7481 28.5471C25.7755 28.5601 25.8036 28.5718 25.8329 28.5811C25.8342 28.5816 25.8356 28.582 25.837 28.5825C25.8648 28.591 25.8935 28.5973 25.9228 28.6023C25.9316 28.6038 25.9403 28.6052 25.9491 28.6063C25.9755 28.6097 26.0022 28.612 26.0294 28.6122C26.0322 28.6122 26.0349 28.6129 26.0377 28.6129C26.0439 28.6129 26.05 28.612 26.0562 28.6118C26.0751 28.6112 26.0939 28.6104 26.1123 28.6084C26.1208 28.6075 26.1291 28.6059 26.1376 28.6046C26.1543 28.6022 26.1708 28.5994 26.1871 28.5958C26.1958 28.5939 26.2044 28.5915 26.213 28.5892C26.2287 28.585 26.2441 28.5805 26.2593 28.5753C26.2682 28.5722 26.277 28.569 26.2858 28.5656C26.3003 28.5599 26.3146 28.5537 26.3286 28.547C26.3374 28.5429 26.3462 28.5389 26.3549 28.5343C26.3694 28.5267 26.3835 28.5182 26.3974 28.5096C26.4064 28.5039 26.4154 28.4986 26.4242 28.4926C26.4416 28.4806 26.4586 28.4678 26.4747 28.4543C26.4828 28.4476 26.4904 28.4401 26.4982 28.4329C26.5091 28.4229 26.5199 28.4126 26.5303 28.4018C26.5374 28.3944 26.5443 28.3867 26.5511 28.379C26.5625 28.3659 26.5734 28.3522 26.5839 28.3382C26.5873 28.3335 26.5912 28.3295 26.5946 28.3249L29.7982 23.7917C30.0943 23.8952 30.3865 24.0092 30.6748 24.1317L26.5848 29.8512C26.5802 29.8574 26.5766 29.8642 26.5724 29.8705C26.5653 29.8811 26.5583 29.8917 26.5518 29.9027C26.5461 29.9124 26.5411 29.9223 26.5358 29.9322C26.5308 29.9417 26.5258 29.9512 26.5211 29.961C26.516 29.972 26.5116 29.9831 26.5071 29.9942C26.5033 30.0036 26.4995 30.013 26.4962 30.0226C26.4923 30.0338 26.4889 30.045 26.4856 30.0564C26.4826 30.0663 26.4797 30.0764 26.4772 30.0866C26.4746 30.0974 26.4725 30.1082 26.4704 30.1191C26.4682 30.1303 26.4661 30.1413 26.4646 30.1526C26.4631 30.1627 26.4622 30.1728 26.4613 30.1829C26.4601 30.195 26.459 30.2071 26.4586 30.2191C26.4582 30.229 26.4583 30.2388 26.4583 30.2486C26.4583 30.2608 26.4584 30.2731 26.4591 30.2853C26.4598 30.2959 26.4609 30.3064 26.462 30.3169C26.4632 30.3283 26.4643 30.3396 26.466 30.351C26.4679 30.3632 26.4706 30.3753 26.4731 30.3875C26.4747 30.3952 26.4757 30.403 26.4776 30.4108C26.478 30.4121 26.4786 30.4133 26.479 30.4147C26.4874 30.4479 26.4988 30.4804 26.5121 30.5121C26.5146 30.5179 26.517 30.5236 26.5195 30.5293C26.533 30.559 26.5486 30.5878 26.5664 30.6155C26.57 30.6209 26.5737 30.6261 26.5773 30.6315C26.596 30.6588 26.6163 30.6854 26.6392 30.7102C26.64 30.711 26.6409 30.7117 26.6416 30.7126C26.6632 30.7355 26.6872 30.7569 26.7123 30.777C26.7181 30.7816 26.7238 30.7864 26.7297 30.7907C26.734 30.7941 26.738 30.7977 26.7425 30.8009C26.7548 30.8097 26.7681 30.816 26.7808 30.8239C26.7954 30.833 26.8096 30.8426 26.825 30.8505C26.8443 30.8606 26.8641 30.8684 26.884 30.8765C26.8975 30.882 26.9106 30.8882 26.9244 30.8929C26.9471 30.9004 26.9701 30.9054 26.9932 30.9105C27.0055 30.9132 27.0174 30.917 27.0299 30.919C27.0625 30.9243 27.0953 30.9268 27.128 30.9273C27.1314 30.9273 27.1346 30.9281 27.1379 30.9281C27.1494 30.9281 27.1613 30.9265 27.1729 30.926C27.188 30.9252 27.2032 30.925 27.2183 30.9233C27.2259 30.9224 27.2335 30.9204 27.2411 30.9193C27.2606 30.9163 27.2801 30.9133 27.2992 30.9086C27.3002 30.9084 27.3012 30.9083 27.3022 30.908C29.6201 30.3344 32.1186 28.9305 34.7353 26.7333C35.1176 27.0805 35.4835 27.4497 35.831 27.8402C32.9092 30.082 29.5861 31.94 26.2804 32.3451C25.9072 32.3909 25.6416 32.7305 25.6874 33.1037C25.7286 33.4402 26.0092 33.6885 26.3368 33.7006V47.2926C26.3365 48.0346 25.7327 48.6382 24.9908 48.6382ZM18.0318 24.75L20.9858 28.8737C19.505 28.2062 17.9431 27.196 16.317 25.8525C16.8635 25.444 17.4364 25.0755 18.0318 24.75ZM23.2627 25.851L21.5277 23.3959C22.0963 23.257 22.6754 23.1518 23.2627 23.0821V25.851ZM28.4171 23.3856L26.7189 25.7886V23.0812C27.2934 23.1491 27.8602 23.2512 28.4171 23.3856ZM33.6664 25.8508C32.0202 27.2112 30.4384 28.2312 28.9387 28.8997L31.9194 24.7315C32.5262 25.0614 33.11 25.435 33.6664 25.8508ZM40.9411 23.2378C39.7634 24.453 38.3944 25.7575 36.8975 26.9911C36.3918 26.4174 35.8504 25.8851 35.2772 25.3964C35.2723 25.3904 35.2681 25.384 35.2629 25.3781C35.21 25.3173 35.1482 25.2689 35.0818 25.2317C32.5494 23.1417 29.4294 21.8887 26.1111 21.6575C26.1052 21.6568 26.0993 21.6568 26.0933 21.6562C25.7279 21.6312 25.3604 21.617 24.9907 21.617C24.6219 21.617 24.2552 21.6312 23.8907 21.6561C23.8838 21.6567 23.8768 21.6568 23.87 21.6576C20.5569 21.8888 17.4402 23.1403 14.9094 25.2271C14.839 25.265 14.7738 25.3153 14.7182 25.3791C14.7106 25.3878 14.7041 25.397 14.6971 25.406C14.1269 25.8931 13.588 26.4235 13.0848 26.9949C11.5944 25.7662 10.2262 24.4634 9.04076 23.2402C5.02706 19.0992 4.54853 13.5517 7.82179 9.10755C11.3406 4.32981 17.919 1.36177 24.9897 1.36177C32.2076 1.36177 38.8527 4.42223 42.3315 9.34885C45.422 13.7255 44.8762 19.1771 40.9411 23.2378Z" fill="white"/>
</svg>
