<svg width="50" height="50" viewBox="0 0 50 50" fill="none" xmlns="http://www.w3.org/2000/svg">
<path d="M27.7303 22.9452C27.5967 22.9452 27.4661 22.9056 27.355 22.8313C27.2439 22.7571 27.1574 22.6516 27.1062 22.5281C27.0551 22.4047 27.0417 22.2688 27.0678 22.1378C27.0939 22.0067 27.1582 21.8864 27.2526 21.7919L46.3418 2.70267H29.4175C28.8383 2.70335 28.2672 2.83874 27.7494 3.09814C27.2315 3.35753 26.7811 3.73382 26.4337 4.19727C26.4151 4.22226 26.3948 4.24596 26.3729 4.26821C25.9133 4.90046 25.6689 5.6636 25.6756 6.44524V21.1297C25.6756 21.3089 25.6044 21.4808 25.4777 21.6075C25.351 21.7342 25.1791 21.8054 24.9999 21.8054C24.8207 21.8054 24.6489 21.7342 24.5222 21.6075C24.3955 21.4808 24.3243 21.3089 24.3243 21.1297V6.44524C24.3195 5.35391 24.6706 4.29077 25.3243 3.41686C25.3427 3.39296 25.3628 3.37038 25.3844 3.34929C25.857 2.72778 26.467 2.22402 27.1667 1.87742C27.8663 1.53081 28.6367 1.35075 29.4175 1.35132H47.9729C48.1065 1.35135 48.2371 1.39099 48.3482 1.46524C48.4593 1.53948 48.5459 1.645 48.597 1.76844C48.6481 1.89189 48.6615 2.02772 48.6355 2.15877C48.6094 2.28982 48.5451 2.4102 48.4506 2.5047L28.2081 22.7479C28.0813 22.8744 27.9094 22.9454 27.7303 22.9452Z" fill="white"/>
<path d="M21.1387 25.6757H6.44481C5.3535 25.6804 4.29039 25.3293 3.41644 24.6757C3.39068 24.6563 3.3663 24.635 3.34346 24.6122C2.72297 24.1397 2.22026 23.5299 1.8747 22.8307C1.52913 22.1315 1.35009 21.3618 1.35157 20.5818V2.02709C1.3516 1.89348 1.39124 1.76287 1.46549 1.65178C1.53974 1.5407 1.64525 1.45412 1.7687 1.40299C1.89214 1.35186 2.02798 1.33848 2.15903 1.36454C2.29007 1.3906 2.41046 1.45493 2.50495 1.54939L22.7475 21.792C22.8706 21.9194 22.9387 22.0901 22.9372 22.2672C22.9356 22.4444 22.8646 22.6139 22.7393 22.7391C22.614 22.8644 22.4445 22.9355 22.2674 22.937C22.0902 22.9385 21.9195 22.8704 21.7921 22.7474L2.70292 3.65818V20.5818C2.7035 21.161 2.83884 21.7322 3.09825 22.25C3.35765 22.7679 3.734 23.2183 4.19752 23.5656C4.22406 23.5861 4.24891 23.6087 4.27184 23.6332C4.90385 24.0896 5.66529 24.3318 6.44481 24.3244H21.1387C21.3179 24.3244 21.4898 24.3956 21.6165 24.5223C21.7432 24.649 21.8144 24.8209 21.8144 25.0001C21.8144 25.1793 21.7432 25.3511 21.6165 25.4778C21.4898 25.6046 21.3179 25.6757 21.1387 25.6757Z" fill="white"/>
<path d="M20.5825 48.6486H2.02709C1.89348 48.6486 1.76287 48.6089 1.65178 48.5347C1.5407 48.4605 1.45412 48.3549 1.40299 48.2315C1.35186 48.1081 1.33848 47.9722 1.36454 47.8412C1.3906 47.7101 1.45493 47.5897 1.54939 47.4952L21.7622 27.2926C21.8525 27.1899 21.9718 27.117 22.1044 27.0835C22.237 27.0501 22.3766 27.0576 22.5048 27.1052C22.633 27.1528 22.7438 27.2382 22.8224 27.35C22.9011 27.4619 22.9439 27.595 22.9453 27.7317C22.9455 27.9138 22.8745 28.0886 22.7474 28.2189L3.65818 47.2973H20.5825C21.1617 47.2966 21.7328 47.1612 22.2506 46.9018C22.7685 46.6424 23.2189 46.2661 23.5663 45.8027C23.5849 45.7777 23.6052 45.754 23.6271 45.7317C24.0867 45.0995 24.3312 44.3363 24.3244 43.5547V28.8703C24.3244 28.6911 24.3956 28.5192 24.5223 28.3925C24.649 28.2658 24.8209 28.1946 25.0001 28.1946C25.1793 28.1946 25.3511 28.2658 25.4778 28.3925C25.6046 28.5192 25.6757 28.6911 25.6757 28.8703V43.5547C25.6805 44.646 25.3294 45.7092 24.6757 46.5831C24.6573 46.607 24.6372 46.6296 24.6156 46.6507C24.143 47.2722 23.533 47.7759 22.8333 48.1225C22.1337 48.4691 21.3633 48.6492 20.5825 48.6486Z" fill="white"/>
<path d="M47.9735 48.6486C47.7943 48.6486 47.6225 48.5774 47.4958 48.4506L27.2532 28.2168C27.1941 28.1503 27.1486 28.0727 27.1195 27.9886C27.0903 27.9045 27.078 27.8155 27.0832 27.7266C27.0884 27.6377 27.1111 27.5508 27.15 27.4707C27.1888 27.3905 27.2431 27.3189 27.3096 27.2597C27.3762 27.2006 27.4537 27.1551 27.5378 27.126C27.622 27.0968 27.711 27.0845 27.7999 27.0897C27.8887 27.095 27.9757 27.1177 28.0558 27.1565C28.1359 27.1954 28.2076 27.2496 28.2667 27.3162L47.2978 46.3418V29.4182C47.2972 28.839 47.1619 28.2679 46.9025 27.75C46.6431 27.2321 46.2668 26.7817 45.8032 26.4344C45.7767 26.4139 45.7518 26.3913 45.7289 26.3668C45.0969 25.9105 44.3355 25.6682 43.5559 25.6756H28.862C28.6828 25.6756 28.5109 25.6044 28.3842 25.4777C28.2575 25.351 28.1863 25.1791 28.1863 24.9999C28.1863 24.8207 28.2575 24.6489 28.3842 24.5222C28.5109 24.3955 28.6828 24.3243 28.862 24.3243H43.5559C44.6472 24.3196 45.7104 24.6707 46.5843 25.3243C46.6101 25.3437 46.6344 25.365 46.6573 25.3878C47.2778 25.8603 47.7805 26.4701 48.126 27.1693C48.4716 27.8685 48.6507 28.6382 48.6492 29.4182V47.9729C48.6492 48.1521 48.578 48.324 48.4513 48.4507C48.3246 48.5774 48.1527 48.6486 47.9735 48.6486Z" fill="white"/>
<path d="M14.8435 15.5176C14.7099 15.5176 14.5793 15.4779 14.4682 15.4037C14.3571 15.3294 14.2705 15.2239 14.2194 15.1005C14.1683 14.977 14.1549 14.8412 14.1809 14.7101C14.207 14.5791 14.2713 14.4587 14.3658 14.3642L25.4131 3.31626C25.5405 3.19318 25.7112 3.12507 25.8884 3.12661C26.0655 3.12815 26.235 3.19921 26.3603 3.32449C26.4855 3.44976 26.5566 3.61923 26.5581 3.79639C26.5597 3.97355 26.4916 4.14423 26.3685 4.27166L15.3212 15.3196C15.1945 15.4464 15.0227 15.5176 14.8435 15.5176Z" fill="white"/>
<path d="M14.8404 35.8338C14.6612 35.8338 14.4893 35.7626 14.3626 35.6359L3.31467 24.5886C3.19159 24.4611 3.12349 24.2904 3.12503 24.1133C3.12657 23.9361 3.19762 23.7667 3.3229 23.6414C3.44818 23.5161 3.61764 23.445 3.7948 23.4435C3.97197 23.442 4.14264 23.5101 4.27008 23.6332L15.3181 34.6805C15.4125 34.775 15.4768 34.8953 15.5029 35.0264C15.529 35.1574 15.5156 35.2933 15.4645 35.4167C15.4133 35.5402 15.3267 35.6457 15.2157 35.7199C15.1046 35.7942 14.974 35.8338 14.8404 35.8338Z" fill="white"/>
<path d="M24.1091 46.8817C23.9755 46.8817 23.8449 46.8421 23.7338 46.7678C23.6227 46.6936 23.5361 46.5881 23.485 46.4646C23.4339 46.3412 23.4205 46.2053 23.4466 46.0743C23.4726 45.9432 23.537 45.8229 23.6314 45.7284L34.6787 34.6804C34.8062 34.5573 34.9768 34.4892 35.154 34.4907C35.3312 34.4923 35.5006 34.5633 35.6259 34.6886C35.7512 34.8139 35.8222 34.9834 35.8238 35.1605C35.8253 35.3377 35.7572 35.5084 35.6341 35.6358L24.5868 46.6838C24.4601 46.8105 24.2883 46.8817 24.1091 46.8817Z" fill="white"/>
<path d="M46.2075 26.5649C46.0284 26.5649 45.8565 26.4937 45.7298 26.3669L34.6819 15.3196C34.5588 15.1922 34.4907 15.0215 34.4922 14.8444C34.4938 14.6672 34.5648 14.4977 34.6901 14.3725C34.8154 14.2472 34.9848 14.1761 35.162 14.1746C35.3392 14.173 35.5098 14.2412 35.6373 14.3642L46.6852 25.4115C46.7797 25.506 46.844 25.6264 46.8701 25.7575C46.8962 25.8885 46.8828 26.0243 46.8316 26.1478C46.7805 26.2712 46.6939 26.3768 46.5829 26.451C46.4718 26.5252 46.3412 26.5649 46.2075 26.5649Z" fill="white"/>
<path d="M24.9982 29.5412C24.1001 29.5412 23.2221 29.2748 22.4753 28.7758C21.7285 28.2768 21.1464 27.5676 20.8027 26.7378C20.459 25.908 20.3691 24.9949 20.5443 24.114C20.7195 23.2331 21.152 22.4239 21.7871 21.7888C22.4222 21.1537 23.2314 20.7212 24.1123 20.546C24.9932 20.3708 25.9063 20.4607 26.7361 20.8044C27.5659 21.1481 28.2751 21.7302 28.7741 22.477C29.2731 23.2238 29.5395 24.1018 29.5395 25C29.5382 26.204 29.0594 27.3583 28.208 28.2097C27.3566 29.0611 26.2023 29.5399 24.9982 29.5412ZM24.9982 21.8101C24.3674 21.8101 23.7506 21.9972 23.2261 22.3477C22.7015 22.6982 22.2926 23.1964 22.0512 23.7792C21.8098 24.3621 21.7466 25.0035 21.8697 25.6223C21.9928 26.241 22.2966 26.8094 22.7427 27.2555C23.1888 27.7016 23.7572 28.0054 24.3759 28.1285C24.9947 28.2516 25.6361 28.1884 26.219 27.947C26.8018 27.7056 27.3 27.2967 27.6505 26.7721C28.001 26.2476 28.1881 25.6309 28.1881 25C28.187 24.1543 27.8506 23.3435 27.2526 22.7456C26.6547 22.1476 25.8439 21.8112 24.9982 21.8101Z" fill="white"/>
</svg>
