<svg width="50" height="50" viewBox="0 0 50 50" fill="none" xmlns="http://www.w3.org/2000/svg">
<path d="M24.9997 44.8919C24.9002 44.8918 24.8018 44.8697 24.7117 44.8272C24.6217 44.7847 24.5421 44.7228 24.4788 44.6459L1.50583 16.7811C1.42437 16.6822 1.37269 16.5623 1.35679 16.4352C1.34089 16.3081 1.36144 16.1791 1.41604 16.0633C1.47063 15.9474 1.55703 15.8495 1.66516 15.7809C1.77329 15.7122 1.8987 15.6757 2.02677 15.6757H47.9727C48.1008 15.6757 48.2262 15.7122 48.3343 15.7809C48.4425 15.8495 48.5289 15.9474 48.5835 16.0633C48.6381 16.1791 48.6586 16.3081 48.6427 16.4352C48.6268 16.5623 48.5751 16.6822 48.4937 16.7811L25.5207 44.6459C25.4574 44.7228 25.3778 44.7847 25.2877 44.8272C25.1977 44.8697 25.0993 44.8918 24.9997 44.8919ZM3.45988 17.027L24.9997 43.154L46.5396 17.027H3.45988Z" fill="white"/>
<path d="M25.0018 44.8919C24.8676 44.892 24.7364 44.852 24.6249 44.7771C24.5135 44.7023 24.4269 44.5959 24.3762 44.4717L12.9876 16.6075C12.9457 16.5049 12.9297 16.3935 12.941 16.2833C12.9523 16.173 12.9905 16.0672 13.0524 15.9752C13.1142 15.8832 13.1977 15.8078 13.2955 15.7557C13.3933 15.7036 13.5025 15.6764 13.6133 15.6764H36.3903C36.5012 15.6764 36.6103 15.7036 36.7081 15.7557C36.806 15.8078 36.8895 15.8832 36.9513 15.9752C37.0131 16.0672 37.0514 16.173 37.0626 16.2833C37.0739 16.3935 37.0579 16.5049 37.016 16.6075L25.6275 44.4717C25.5768 44.5959 25.4901 44.7023 25.3787 44.7771C25.2673 44.852 25.1361 44.892 25.0018 44.8919ZM14.6194 17.0271L25.0018 42.4325L35.3843 17.0271H14.6194Z" fill="white"/>
<path d="M47.973 17.027H2.02707C1.90358 17.027 1.78247 16.9931 1.67688 16.9291C1.5713 16.8651 1.48528 16.7733 1.42817 16.6638C1.37106 16.5543 1.34504 16.4313 1.35295 16.3081C1.36086 16.1848 1.40238 16.0661 1.47301 15.9649L8.85139 5.39728C8.91363 5.30803 8.99651 5.23513 9.09297 5.18478C9.18944 5.13443 9.29663 5.10812 9.40545 5.10809H40.5946C40.7034 5.10812 40.8106 5.13443 40.9071 5.18478C41.0036 5.23513 41.0865 5.30803 41.1487 5.39728L48.5271 15.9649C48.5977 16.0661 48.6392 16.1848 48.6471 16.3081C48.655 16.4313 48.629 16.5543 48.5719 16.6638C48.5148 16.7733 48.4288 16.8651 48.3232 16.9291C48.2176 16.9931 48.0965 17.027 47.973 17.027ZM3.32301 15.6757H46.6771L40.2426 6.45944H9.75747L3.32301 15.6757Z" fill="white"/>
<path d="M36.3877 17.027H13.6106C13.4969 17.0266 13.3851 16.9975 13.2856 16.9423C13.1861 16.8872 13.1022 16.8078 13.0416 16.7116C12.9809 16.6154 12.9455 16.5054 12.9387 16.3919C12.9319 16.2784 12.9538 16.1649 13.0025 16.0621L18.012 5.49458C18.0665 5.37935 18.1526 5.2819 18.2602 5.21351C18.3678 5.14512 18.4926 5.10858 18.6201 5.10809H31.3782C31.5057 5.10858 31.6305 5.14512 31.7381 5.21351C31.8457 5.2819 31.9317 5.37935 31.9863 5.49458L36.9958 16.0621C37.0445 16.1649 37.0664 16.2784 37.0596 16.3919C37.0527 16.5054 37.0174 16.6154 36.9567 16.7116C36.8961 16.8078 36.8121 16.8872 36.7127 16.9423C36.6132 16.9975 36.5014 17.0266 36.3877 17.027ZM14.6789 15.6757H35.3194L30.9512 6.45944H19.0471L14.6789 15.6757Z" fill="white"/>
</svg>
