<svg width="62" height="50" viewBox="0 0 62 50" fill="none" xmlns="http://www.w3.org/2000/svg">
<path d="M55.855 30.8531L54.6039 24.071C54.0712 21.1838 52.0057 18.8265 49.2135 17.9192C48.711 17.7559 48.1996 17.6436 47.685 17.5819C48.0652 17.2295 48.4207 16.8272 48.7312 16.3998C50.4459 14.0396 50.7466 10.9233 49.5033 8.28415L46.6001 2.12221C46.494 1.8969 46.2807 1.74104 46.0338 1.70832L39.197 0.80251C36.2865 0.416748 33.4063 1.65285 31.6806 4.02807C31.37 4.45544 31.1052 4.90712 30.8874 5.37756C30.6695 4.90683 30.4045 4.45495 30.0938 4.02719L30.0787 4.00639C28.3638 1.64621 25.5006 0.407763 22.6066 0.77497L15.8492 1.63185C15.6021 1.6632 15.3879 1.8179 15.2805 2.04261L12.3061 8.26491C11.04 10.9139 11.3254 14.035 13.0512 16.4103C13.3618 16.8376 13.7094 17.2292 14.0895 17.5816C13.5745 17.6433 13.0628 17.7557 12.56 17.9191L12.5356 17.9271C9.76099 18.8287 7.69858 21.169 7.15334 24.035L5.88012 30.7264C5.83354 30.971 5.9145 31.2226 6.09508 31.3942L11.0937 36.1456C12.6033 37.5805 14.58 38.3463 16.5985 38.3462C17.4253 38.3462 18.2592 38.2177 19.0707 37.954C19.573 37.7907 20.0528 37.581 20.5055 37.3285C20.4051 37.8372 20.3539 38.3585 20.3539 38.8869V38.9132C20.3539 41.8305 21.9425 44.5152 24.4996 45.9194L30.4701 49.1981C30.5799 49.2584 30.7013 49.2886 30.8226 49.2886C30.9427 49.2886 31.0627 49.2591 31.1716 49.2001L37.2351 45.9144C39.8165 44.5156 41.4201 41.8227 41.4201 38.8867C41.4201 38.3585 41.3689 37.8374 41.2685 37.3287C41.7214 37.5815 42.2012 37.7912 42.7037 37.9546L42.7287 37.9627C43.5389 38.2259 44.3718 38.3542 45.1983 38.3542C47.2024 38.3542 49.168 37.5996 50.6731 36.1849L55.6364 31.5198C55.8178 31.3491 55.9002 31.0981 55.855 30.8531ZM32.8656 4.88915C34.2752 2.94921 36.6276 1.93958 39.0045 2.25474L45.4452 3.1081L48.1781 8.9086C49.1935 11.064 48.9465 13.6112 47.5463 15.5385C46.7388 16.6499 45.6164 17.4749 44.3138 17.9071C44.3004 17.9114 42.4556 18.51 42.4556 18.51C43.3809 17.1098 43.7448 15.4391 43.4806 13.7709C43.2005 12.0021 42.2484 10.4483 40.7994 9.39564C37.8916 7.28283 33.8402 7.85405 31.6203 10.6363C31.6203 10.6363 31.6197 8.69765 31.6196 8.6833C31.6286 7.31115 32.0585 6.00005 32.8656 4.88915ZM36.1084 24.7345C37.5714 23.9669 38.7074 22.665 39.2692 21.0987C40.2254 20.8558 41.2208 20.8875 42.1694 21.1956C43.5005 21.628 44.5834 22.553 45.2188 23.8C45.8542 25.047 45.9659 26.4668 45.5335 27.7979C45.101 29.1289 44.1761 30.2119 42.9291 30.8473C41.6821 31.4825 40.2623 31.5944 38.9312 31.1619C37.9824 30.8536 37.1585 30.2942 36.5279 29.5359C36.9949 27.938 36.8411 26.2163 36.1084 24.7345ZM25.2476 29.5359C24.6167 30.295 23.7925 30.8547 22.8434 31.1631C20.0961 32.0559 17.134 30.5467 16.2411 27.7991C15.8087 26.4681 15.9204 25.0483 16.5558 23.8013C17.1912 22.5542 18.2741 21.6293 19.6052 21.1968C20.5549 20.8883 21.5505 20.8562 22.5063 21.0991C23.068 22.6653 24.204 23.967 25.667 24.7346C24.9344 26.2163 24.7807 27.938 25.2476 29.5359ZM35.0096 19.993C35.9969 19.9815 36.978 20.2537 37.8233 20.7847C37.4517 21.7106 36.8187 22.5071 36.0139 23.078C36.014 23.0647 36.0149 23.0515 36.0149 23.0383C36.0149 21.8987 35.6409 20.8452 35.0096 19.993ZM35.1742 28.9381C34.1793 28.8707 33.2265 28.515 32.4349 27.9264C33.5024 27.5878 34.4187 26.9081 35.0574 26.0164C35.3737 26.9521 35.418 27.9697 35.1742 28.9381ZM34.1143 18.5973C33.8362 16.9679 32.9484 15.4846 31.6316 14.4663C31.6963 13.4824 32.0339 12.5463 32.6199 11.7397C34.3181 9.40247 37.6011 8.88243 39.9386 10.5806C41.0708 11.4033 41.8149 12.6175 42.0339 13.9999C42.2528 15.3822 41.9203 16.767 41.0977 17.8993C40.5116 18.7061 39.7256 19.3165 38.8101 19.6818C37.4345 18.7442 35.7498 18.3584 34.1143 18.5973ZM34.55 23.0383C34.55 25.0577 32.9071 26.7006 30.8877 26.7006C28.8683 26.7006 27.2254 25.0577 27.2254 23.0383C27.2254 21.0188 28.8683 19.3759 30.8877 19.3759C32.9071 19.3759 34.55 21.0188 34.55 23.0383ZM29.3406 27.9264C28.5491 28.515 27.5963 28.8708 26.6012 28.938C26.3574 27.9696 26.4017 26.9521 26.718 26.0163C27.3568 26.9082 28.2732 27.5878 29.3406 27.9264ZM25.7605 23.0383C25.7605 23.0516 25.7613 23.0647 25.7614 23.078C24.9566 22.5071 24.3237 21.7106 23.9521 20.7847C24.7975 20.2537 25.7785 19.9815 26.7658 19.993C26.1346 20.8452 25.7605 21.8987 25.7605 23.0383ZM26.4531 30.4101C28.1161 30.3597 29.7055 29.6819 30.8877 28.5276C32.07 29.6818 33.6588 30.3595 35.322 30.4097C35.8493 31.2445 36.1272 32.2016 36.1272 33.1999C36.1272 36.089 33.7768 38.4395 30.8877 38.4395C27.9986 38.4395 25.6482 36.089 25.6482 33.1999C25.6482 32.2016 25.9259 31.2446 26.4531 30.4101ZM30.8877 15.7458C31.6535 16.3854 32.2154 17.2336 32.5097 18.1755C31.9995 18.0049 31.4545 17.911 30.8877 17.911C30.3209 17.911 29.7759 18.0049 29.2657 18.1755C29.5601 17.2336 30.1219 16.3853 30.8877 15.7458ZM13.6279 8.89669L16.4298 3.03495L22.7908 2.22837C25.1549 1.92864 27.4929 2.93993 28.8936 4.86786L28.9088 4.88866C29.716 5.99976 30.146 7.31096 30.1547 8.6831C30.1546 8.69746 30.1539 10.6372 30.1539 10.6372C28.3154 8.33172 25.1824 7.48968 22.4252 8.59423C22.0497 8.74463 21.8673 9.17102 22.0177 9.54653C22.1681 9.92203 22.5944 10.1044 22.97 9.95407C25.198 9.06144 27.7409 9.79605 29.1536 11.7405C29.74 12.5475 30.0776 13.484 30.142 14.468C28.8263 15.4862 27.9393 16.9688 27.6613 18.5973C26.0246 18.3584 24.3388 18.7447 22.9632 19.6834C22.0481 19.3179 21.2622 18.7071 20.6757 17.9C19.2624 15.9547 19.3502 13.3085 20.8892 11.4652C21.1485 11.1546 21.1069 10.6928 20.7963 10.4335C20.4859 10.1742 20.0239 10.2158 19.7646 10.5264C17.8605 12.8071 17.6921 16.0474 19.3166 18.5092C19.3166 18.5092 17.4739 17.9112 17.4605 17.9069C16.158 17.4747 15.0436 16.6605 14.2363 15.5493C12.8269 13.6092 12.5938 11.0602 13.6279 8.89669ZM18.618 36.5608C16.3375 37.3019 13.841 36.7359 12.103 35.0838L7.39397 30.6077L8.59247 24.3087C9.03791 21.9681 10.7223 20.0566 12.9888 19.3202L13.0132 19.3122C14.3197 18.8877 15.7 18.8841 17.008 19.3001C17.0212 19.3045 18.8656 19.9046 18.8656 19.9046C17.294 20.4934 16.0175 21.6311 15.2507 23.1361C14.4377 24.7318 14.2947 26.5485 14.8481 28.2517C15.7678 31.0819 18.4023 32.8853 21.2291 32.885C21.8166 32.885 22.4127 32.8063 23.0032 32.6435L21.8807 34.1884C21.8723 34.2 21.8646 34.2119 21.8563 34.2235C21.0425 35.3284 19.924 36.1365 18.618 36.5608ZM36.5372 44.6263L30.825 47.7217L25.2047 44.6353C23.1162 43.4883 21.8189 41.2958 21.8189 38.9131V38.8868C21.8189 37.5133 22.2418 36.1998 23.0413 35.0845C23.0497 35.0731 24.191 33.5036 24.191 33.5036C24.3504 37.06 27.2928 39.9043 30.8877 39.9043C34.4822 39.9043 37.4242 37.0608 37.5844 33.5051C37.5844 33.5051 38.7241 35.0726 38.7324 35.0838C39.5321 36.1991 39.9552 37.5129 39.9552 38.8865C39.9552 41.2846 38.6455 43.484 36.5372 44.6263ZM49.6698 35.1175C47.9336 36.7493 45.4473 37.3057 43.1815 36.5694L43.1565 36.5613C41.8501 36.1368 40.7316 35.3286 39.918 34.2235C39.9097 34.212 38.7701 32.6421 38.7701 32.6421C40.3876 33.0894 42.0891 32.9191 43.5939 32.1525C45.1895 31.3395 46.3731 29.9538 46.9265 28.2505C47.48 26.5473 47.337 24.7306 46.524 23.1349C45.7574 21.6305 44.4814 20.4929 42.9105 19.9039C42.9105 19.9039 44.7531 19.3046 44.7664 19.3002C46.0741 18.8844 47.4542 18.8879 48.7607 19.3125C51.0413 20.0534 52.7282 21.9786 53.1633 24.3369L54.342 30.726L49.6698 35.1175Z" fill="white"/>
<path d="M28.6914 23.0383C28.6914 24.25 29.6771 25.2357 30.8888 25.2357C32.1005 25.2357 33.0862 24.25 33.0862 23.0383C33.0862 21.8266 32.1005 20.8409 30.8888 20.8409C29.6771 20.8409 28.6914 21.8266 28.6914 23.0383ZM31.6213 23.0383C31.6213 23.4423 31.2927 23.7708 30.8888 23.7708C30.4849 23.7708 30.1563 23.4423 30.1563 23.0383C30.1563 22.6344 30.4849 22.3059 30.8888 22.3059C31.2927 22.3059 31.6213 22.6344 31.6213 23.0383Z" fill="white"/>
</svg>
