<svg width="24" height="24" viewBox="0 0 24 24" fill="none" xmlns="http://www.w3.org/2000/svg">
<path d="M21.9454 7.88007C21.8985 6.81739 21.7266 6.08681 21.4805 5.45375C21.2265 4.78177 20.8358 4.18015 20.3239 3.68002C19.8238 3.17211 19.2182 2.77744 18.554 2.52745C17.9173 2.28128 17.1905 2.10943 16.1279 2.06257C15.0572 2.01175 14.7174 2 12.002 2C9.2866 2 8.94672 2.01175 7.88007 2.05861C6.81739 2.10546 6.08681 2.27746 5.4539 2.52348C4.78177 2.77744 4.18015 3.16814 3.68002 3.68002C3.17211 4.18015 2.77759 4.78574 2.52745 5.44993C2.28128 6.08681 2.10943 6.81342 2.06257 7.8761C2.01175 8.94672 2 9.2866 2 12.002C2 14.7174 2.01175 15.0572 2.05861 16.1239C2.10546 17.1866 2.27746 17.9172 2.52363 18.5502C2.77759 19.2222 3.17211 19.8238 3.68002 20.3239C4.18015 20.8319 4.78574 21.2265 5.44993 21.4765C6.08681 21.7227 6.81342 21.8945 7.87625 21.9414C8.94275 21.9884 9.28278 22 11.9982 22C14.7135 22 15.0534 21.9884 16.1201 21.9414C17.1828 21.8945 17.9133 21.7227 18.5462 21.4765C19.8903 20.9569 20.953 19.8942 21.4727 18.5502C21.7187 17.9133 21.8907 17.1866 21.9376 16.1239C21.9844 15.0572 21.9962 14.7174 21.9962 12.002C21.9962 9.2866 21.9922 8.94672 21.9454 7.88007ZM20.1443 16.0458C20.1013 17.0225 19.9372 17.55 19.8005 17.9016C19.4644 18.7729 18.7729 19.4644 17.9016 19.8005C17.5499 19.9372 17.0187 20.1013 16.0457 20.1442C14.9909 20.1912 14.6745 20.2028 12.0059 20.2028C9.33742 20.2028 9.01707 20.1912 7.96599 20.1442C6.98924 20.1013 6.46179 19.9372 6.11016 19.8005C5.67657 19.6402 5.2819 19.3863 4.96155 19.0542C4.62946 18.7298 4.3755 18.3391 4.21525 17.9056C4.07851 17.5539 3.91444 17.0225 3.87156 16.0497C3.82455 14.9948 3.81295 14.6783 3.81295 12.0098C3.81295 9.34124 3.82455 9.02089 3.87156 7.96996C3.91444 6.99321 4.07851 6.46576 4.21525 6.11413C4.3755 5.68039 4.62946 5.28587 4.96552 4.96537C5.28968 4.63327 5.68038 4.37932 6.11413 4.21922C6.46576 4.08247 6.99717 3.91841 7.96996 3.87537C9.02486 3.82852 9.34139 3.81677 12.0098 3.81677C14.6823 3.81677 14.9986 3.82852 16.0497 3.87537C17.0265 3.91841 17.5539 4.08247 17.9056 4.21922C18.3391 4.37932 18.7338 4.63327 19.0542 4.96537C19.3863 5.28968 19.6402 5.68039 19.8005 6.11413C19.9372 6.46576 20.1013 6.99702 20.1443 7.96996C20.1912 9.02486 20.2029 9.34124 20.2029 12.0098C20.2029 14.6783 20.1912 14.9909 20.1443 16.0458Z" fill="white"/>
<path d="M12.001 6.86426C9.16461 6.86426 6.86328 9.16544 6.86328 12.002C6.86328 14.8386 9.16461 17.1397 12.001 17.1397C14.8376 17.1397 17.1388 14.8386 17.1388 12.002C17.1388 9.16544 14.8376 6.86426 12.001 6.86426ZM12.001 15.3347C10.1609 15.3347 8.6683 13.8423 8.6683 12.002C8.6683 10.1617 10.1609 8.66927 12.001 8.66927C13.8413 8.66927 15.3337 10.1617 15.3337 12.002C15.3337 13.8423 13.8413 15.3347 12.001 15.3347Z" fill="white"/>
<path d="M18.5396 6.6611C18.5396 7.32346 18.0026 7.86052 17.3401 7.86052C16.6777 7.86052 16.1406 7.32346 16.1406 6.6611C16.1406 5.99858 16.6777 5.46167 17.3401 5.46167C18.0026 5.46167 18.5396 5.99858 18.5396 6.6611Z" fill="white"/>
</svg>
