<svg width="24" height="24" viewBox="0 0 24 24" fill="none" xmlns="http://www.w3.org/2000/svg">
<path d="M19.2561 12.8811C18.9004 12.4611 19.0021 12.2743 19.2561 11.8989C19.2606 11.8946 22.1968 8.10086 22.4993 6.81429L22.5012 6.81343C22.6515 6.34457 22.5012 6 21.7742 6H19.3688C18.7564 6 18.4741 6.29571 18.3228 6.62657C18.3228 6.62657 17.0981 9.36771 15.3656 11.1446C14.8064 11.658 14.5479 11.8226 14.2426 11.8226C14.0923 11.8226 13.8585 11.658 13.8585 11.1891V6.81343C13.8585 6.25114 13.6871 6 13.1802 6H9.39787C9.01378 6 8.78552 6.26229 8.78552 6.50657C8.78552 7.03971 9.6518 7.16229 9.74164 8.66229V11.9169C9.74164 12.63 9.60322 12.7611 9.29612 12.7611C8.47843 12.7611 6.49377 10.0089 5.31765 6.85886C5.08022 6.24771 4.8483 6.00086 4.23136 6.00086H1.82503C1.13842 6.00086 1 6.29657 1 6.62743C1 7.212 1.81769 10.1186 4.80246 13.9586C6.7917 16.5797 9.59313 18 12.1416 18C13.6734 18 13.8604 17.6846 13.8604 17.142C13.8604 14.6374 13.7219 14.4009 14.4892 14.4009C14.8449 14.4009 15.4573 14.5654 16.8873 15.8297C18.5218 17.3289 18.7904 18 19.7052 18H22.1106C22.7963 18 23.1438 17.6846 22.9439 17.0623C22.4865 15.7534 19.3954 13.0611 19.2561 12.8811Z" fill="white"/>
</svg>
